<svg width="454" height="286" viewBox="0 0 454 286" fill="none" xmlns="http://www.w3.org/2000/svg">
<path d="M223.953 275.054C222.493 275.054 221.041 274.673 219.763 273.933L206.424 266.041C204.433 264.926 205.406 264.532 206.062 264.303C208.719 263.381 209.257 263.168 212.093 261.56C212.388 261.394 212.78 261.457 213.085 261.636L223.332 267.72C223.704 267.926 224.228 267.926 224.569 267.72L264.519 244.662C264.891 244.45 265.129 244.022 265.129 243.581V197.478C265.129 197.027 264.89 196.606 264.509 196.377L224.576 173.339C224.208 173.123 223.717 173.123 223.345 173.339L183.422 196.384C183.034 196.606 182.788 197.041 182.788 197.478V243.581C182.788 244.022 183.033 244.44 183.418 244.649L194.362 250.972C200.3 253.941 203.935 250.444 203.935 246.931V201.411C203.935 200.768 204.453 200.26 205.096 200.26H210.162C210.796 200.26 211.32 200.768 211.32 201.411V246.931C211.32 254.856 207.004 259.401 199.491 259.401C197.182 259.401 195.364 259.401 190.289 256.9L179.813 250.869C177.226 249.373 175.623 246.576 175.623 243.581V197.478C175.623 194.483 177.225 191.686 179.813 190.197L219.763 167.112C222.291 165.682 225.651 165.682 228.159 167.112L268.106 190.197C270.693 191.693 272.302 194.483 272.302 197.478V243.581C272.302 246.576 270.693 249.363 268.106 250.869L228.159 273.934C226.882 274.673 225.433 275.054 223.953 275.054Z" fill="#699F63"/>
<path d="M236.293 243.292C218.811 243.292 215.149 235.268 215.149 228.537C215.149 227.897 215.663 227.386 216.304 227.386H221.469C222.046 227.386 222.527 227.801 222.617 228.365C223.397 233.623 225.722 236.277 236.294 236.277C244.71 236.277 248.293 234.373 248.293 229.908C248.293 227.334 247.278 225.423 234.198 224.142C223.268 223.061 216.507 220.646 216.507 211.901C216.507 203.84 223.301 199.033 234.693 199.033C247.491 199.033 253.824 203.475 254.626 213.005C254.656 213.333 254.54 213.649 254.321 213.894C254.102 214.123 253.797 214.262 253.475 214.262H248.29C247.753 214.262 247.278 213.881 247.169 213.36C245.925 207.827 242.9 206.059 234.693 206.059C225.504 206.059 224.436 209.26 224.436 211.658C224.436 214.564 225.697 215.41 238.103 217.052C250.38 218.674 256.212 220.973 256.212 229.601C256.21 238.306 248.952 243.292 236.293 243.292Z" fill="#699F63"/>
<path d="M293.899 194.941C293.899 199.177 290.436 202.64 286.2 202.64C282.003 202.64 278.501 199.218 278.501 194.941C278.501 190.582 282.087 187.24 286.2 187.24C290.356 187.24 293.899 190.582 293.899 194.941ZM279.744 194.919C279.744 198.505 282.636 201.398 286.179 201.398C289.765 201.398 292.658 198.444 292.658 194.919C292.658 191.335 289.726 188.483 286.179 188.483C282.676 188.484 279.744 191.293 279.744 194.919ZM283.307 190.622H286.283C287.301 190.622 289.298 190.622 289.298 192.904C289.298 194.493 288.28 194.818 287.666 195.022C288.85 195.104 288.93 195.878 289.092 196.978C289.175 197.67 289.298 198.852 289.54 199.259H287.709C287.666 198.853 287.381 196.652 287.381 196.531C287.262 196.041 287.096 195.798 286.486 195.798H284.98V199.259H283.308V190.622H283.307ZM284.939 194.41H286.282C287.38 194.41 287.586 193.637 287.586 193.189C287.586 192.006 286.77 192.006 286.322 192.006H284.939V194.41Z" fill="#699F63"/>
<path d="M100.243 94.677C100.243 92.836 99.274 91.144 97.685 90.232L55.33 65.857C54.614 65.436 53.811 65.217 52.998 65.183C52.925 65.183 52.62 65.183 52.56 65.183C51.751 65.216 50.948 65.435 50.221 65.857L7.86599 90.232C6.28699 91.144 5.30499 92.836 5.30499 94.677L5.39799 160.312C5.39799 161.224 5.87199 162.074 6.67499 162.521C7.46099 162.992 8.43299 162.992 9.21599 162.521L34.388 148.107C35.98 147.162 36.949 145.493 36.949 143.669V113.004C36.949 111.176 37.917 109.484 39.503 108.576L50.221 102.403C51.02 101.942 51.893 101.716 52.785 101.716C53.657 101.716 54.553 101.942 55.329 102.403L66.044 108.576C67.63 109.485 68.602 111.177 68.602 113.004V143.669C68.602 145.493 69.584 147.172 71.166 148.107L96.331 162.521C97.12 162.992 98.106 162.992 98.889 162.521C99.669 162.073 100.16 161.224 100.16 160.312L100.243 94.677Z" fill="white"/>
<path d="M304.04 4.45097C303.247 4.00997 302.28 4.01997 301.497 4.47897C300.716 4.93897 300.235 5.77797 300.235 6.68497V71.685C300.235 72.324 299.893 72.916 299.341 73.236C298.787 73.556 298.104 73.556 297.549 73.236L286.941 67.124C285.358 66.212 283.411 66.214 281.829 67.126L239.457 91.579C237.873 92.493 236.898 94.182 236.898 96.009V144.925C236.898 146.753 237.873 148.441 239.456 149.357L281.826 173.828C283.41 174.742 285.36 174.742 286.944 173.828L329.32 149.357C330.903 148.442 331.878 146.753 331.878 144.925V22.989C331.878 21.135 330.875 19.424 329.254 18.52L304.04 4.45097ZM300.109 128.853C300.109 129.309 299.865 129.732 299.469 129.959L284.921 138.345C284.526 138.572 284.039 138.572 283.644 138.345L269.096 129.959C268.7 129.732 268.456 129.309 268.456 128.853V112.054C268.456 111.598 268.7 111.175 269.095 110.946L283.643 102.543C284.039 102.314 284.527 102.314 284.923 102.543L299.471 110.946C299.866 111.175 300.11 111.598 300.11 112.054L300.109 128.853Z" fill="white"/>
<path d="M445.131 111.615C446.707 110.7 447.677 109.014 447.677 107.191V95.337C447.677 93.514 446.707 91.827 445.129 90.912L403.03 66.469C401.446 65.548 399.49 65.547 397.903 66.462L355.547 90.915C353.964 91.829 352.989 93.517 352.989 95.345V144.248C352.989 146.087 353.976 147.784 355.573 148.693L397.666 172.678C399.218 173.564 401.121 173.574 402.683 172.706L428.143 158.555C428.951 158.106 429.454 157.258 429.458 156.336C429.465 155.414 428.974 154.56 428.174 154.1L385.549 129.635C384.753 129.179 384.264 128.331 384.264 127.415V112.089C384.264 111.175 384.751 110.329 385.544 109.873L398.81 102.225C399.599 101.769 400.575 101.769 401.364 102.225L414.637 109.873C415.43 110.329 415.917 111.175 415.917 112.089V124.147C415.917 125.063 416.407 125.909 417.199 126.365C417.992 126.823 418.969 126.819 419.76 126.36L445.131 111.615Z" fill="white"/>
<path d="M399.842 109.324C400.146 109.148 400.52 109.148 400.824 109.324L408.954 114.014C409.258 114.19 409.445 114.513 409.445 114.865V124.253C409.445 124.605 409.258 124.928 408.954 125.104L400.824 129.794C400.52 129.97 400.146 129.97 399.842 129.794L391.718 125.104C391.414 124.928 391.227 124.605 391.227 124.253V114.865C391.227 114.513 391.414 114.19 391.718 114.014L399.842 109.324Z" fill="#699F63"/>
<path d="M171.12 66.717C169.546 65.808 167.606 65.808 166.033 66.717L123.899 91.031C122.323 91.94 121.353 93.619 121.353 95.439V144.105C121.353 145.923 122.323 147.602 123.897 148.513L166.031 172.847C167.606 173.756 169.546 173.756 171.122 172.847L213.246 148.513C214.82 147.603 215.789 145.923 215.789 144.105V95.437C215.789 93.619 214.819 91.94 213.244 91.031L171.12 66.717Z" fill="url(#paint0_linear_23_350)"/>
<mask id="mask0_23_350" style="mask-type:luminance" maskUnits="userSpaceOnUse" x="121" y="66" width="95" height="108">
<path d="M171.12 66.717C169.546 65.808 167.606 65.808 166.033 66.717L123.899 91.031C122.323 91.94 121.353 93.619 121.353 95.439V144.105C121.353 145.923 122.323 147.602 123.897 148.513L166.031 172.847C167.606 173.756 169.546 173.756 171.122 172.847L213.246 148.513C214.82 147.603 215.789 145.923 215.789 144.105V95.437C215.789 93.619 214.819 91.94 213.244 91.031L171.12 66.717Z" fill="white"/>
</mask>
<g mask="url(#mask0_23_350)">
<path d="M213.327 91.031L171.075 66.717C170.658 66.476 170.212 66.304 169.753 66.191L122.313 147.343C122.722 147.803 123.201 148.204 123.733 148.512L166.056 172.846C167.255 173.538 168.68 173.7 169.987 173.338L214.46 91.902C214.122 91.568 213.743 91.271 213.327 91.031Z" fill="url(#paint1_linear_23_350)"/>
</g>
<mask id="mask1_23_350" style="mask-type:luminance" maskUnits="userSpaceOnUse" x="121" y="66" width="95" height="108">
<path d="M171.12 66.717C169.546 65.808 167.606 65.808 166.033 66.717L123.899 91.031C122.323 91.94 121.353 93.619 121.353 95.439V144.105C121.353 145.923 122.323 147.602 123.897 148.513L166.031 172.847C167.606 173.756 169.546 173.756 171.122 172.847L213.246 148.513C214.82 147.603 215.789 145.923 215.789 144.105V95.437C215.789 93.619 214.819 91.94 213.244 91.031L171.12 66.717Z" fill="white"/>
</mask>
<g mask="url(#mask1_23_350)">
<path d="M213.351 148.513C214.579 147.803 215.495 146.622 215.842 145.275L169.525 66.147C168.316 65.906 167.033 66.089 165.944 66.718L123.976 90.886L169.313 173.48C169.96 173.392 170.594 173.182 171.174 172.848L213.351 148.513Z" fill="url(#paint2_linear_23_350)"/>
<path d="M213.351 148.513L171.174 172.847C170.594 173.182 169.96 173.391 169.313 173.479L170.153 175.009L217 147.892V147.253L215.842 145.275C215.495 146.622 214.579 147.802 213.351 148.513Z" fill="url(#paint3_linear_23_350)"/>
<path d="M213.351 148.513L171.174 172.847C170.594 173.182 169.96 173.391 169.313 173.479L170.153 175.009L217 147.892V147.253L215.842 145.275C215.495 146.622 214.579 147.802 213.351 148.513Z" fill="url(#paint4_linear_23_350)"/>
</g>
<defs>
<linearGradient id="paint0_linear_23_350" x1="185.702" y1="84.8248" x2="147.637" y2="162.477" gradientUnits="userSpaceOnUse">
<stop stop-color="#41873F"/>
<stop offset="0.3288" stop-color="#418B3D"/>
<stop offset="0.6352" stop-color="#419637"/>
<stop offset="0.9319" stop-color="#3FA92D"/>
<stop offset="1" stop-color="#3FAE2A"/>
</linearGradient>
<linearGradient id="paint1_linear_23_350" x1="162.157" y1="125.463" x2="268.965" y2="46.5481" gradientUnits="userSpaceOnUse">
<stop offset="0.1376" stop-color="#41873F"/>
<stop offset="0.4032" stop-color="#54A044"/>
<stop offset="0.7136" stop-color="#66B848"/>
<stop offset="0.9081" stop-color="#6CC04A"/>
</linearGradient>
<linearGradient id="paint2_linear_23_350" x1="119.862" y1="119.762" x2="217.279" y2="119.762" gradientUnits="userSpaceOnUse">
<stop offset="0.0919" stop-color="#6CC04A"/>
<stop offset="0.2864" stop-color="#66B848"/>
<stop offset="0.5968" stop-color="#54A044"/>
<stop offset="0.8624" stop-color="#41873F"/>
</linearGradient>
<linearGradient id="paint3_linear_23_350" x1="119.862" y1="160.142" x2="217.279" y2="160.142" gradientUnits="userSpaceOnUse">
<stop offset="0.0919" stop-color="#6CC04A"/>
<stop offset="0.2864" stop-color="#66B848"/>
<stop offset="0.5968" stop-color="#54A044"/>
<stop offset="0.8624" stop-color="#41873F"/>
</linearGradient>
<linearGradient id="paint4_linear_23_350" x1="231.472" y1="82.5224" x2="171.391" y2="205.087" gradientUnits="userSpaceOnUse">
<stop stop-color="#41873F"/>
<stop offset="0.3288" stop-color="#418B3D"/>
<stop offset="0.6352" stop-color="#419637"/>
<stop offset="0.9319" stop-color="#3FA92D"/>
<stop offset="1" stop-color="#3FAE2A"/>
</linearGradient>
</defs>
</svg>
