<svg width="396" height="395" viewBox="0 0 396 395" fill="none" xmlns="http://www.w3.org/2000/svg">
<path d="M197.671 230.285C215.923 230.285 230.719 215.489 230.719 197.237C230.719 178.985 215.923 164.188 197.671 164.188C179.419 164.188 164.623 178.985 164.623 197.237C164.623 215.489 179.419 230.285 197.671 230.285Z" fill="#00D8FF"/>
<path d="M197.671 272.945C151.258 272.945 110.705 267.481 80.3558 257.079C60.6717 250.364 43.95 241.411 32.0342 231.207C19.3942 220.41 12.6792 208.626 12.6792 197.237C12.6792 175.38 36.6425 153.984 76.8667 140.027C109.783 128.572 152.707 122.187 197.605 122.187C241.713 122.187 284.044 128.375 316.763 139.698C335.921 146.282 352.05 154.84 363.505 164.32C375.948 174.722 382.531 186.111 382.531 197.237C382.531 219.949 355.737 242.925 312.55 257.211C282.003 267.349 241.187 272.945 197.671 272.945ZM197.671 137.987C155.077 137.987 112.943 144.175 82.1333 154.906C45.135 167.809 28.545 185.452 28.545 197.237C28.545 209.482 46.3858 228.771 85.4908 242.135C114.194 251.944 153.036 257.145 197.671 257.145C239.541 257.145 278.58 251.878 307.612 242.201C348.232 228.705 366.797 209.416 366.797 197.237C366.797 190.982 362.057 183.609 353.432 176.433C343.492 168.138 329.008 160.567 311.694 154.577C280.555 143.912 240.067 137.987 197.671 137.987Z" fill="#00D8FF"/>
<path d="M122.687 361.952C115.972 361.952 110.047 360.503 105.043 357.607C86.1492 346.678 79.5658 315.21 87.5317 273.406C94.0492 239.107 109.981 198.817 132.43 159.909C154.484 121.726 180.949 88.1508 207.085 65.4383C222.358 52.14 237.829 42.3967 251.786 37.2617C266.993 31.6658 280.16 31.6658 289.772 37.1958C309.456 48.5192 315.973 83.2792 306.757 127.783C300.239 159.382 284.703 197.5 262.978 235.223C239.804 275.381 214.787 307.771 190.627 328.903C174.958 342.597 158.829 352.603 144.082 357.804C136.38 360.569 129.138 361.952 122.687 361.952ZM139.211 163.859L146.057 167.809C124.793 204.676 109.059 244.242 103.002 276.368C95.695 314.881 102.739 338.054 112.877 343.913C115.379 345.362 118.671 346.152 122.687 346.152C135.787 346.152 156.393 337.857 180.225 317.053C203.069 297.106 226.967 266.033 249.284 227.388C270.219 191.114 285.097 154.642 291.286 124.688C299.91 82.7525 292.471 57.0775 281.872 50.955C276.473 47.8608 267.717 48.2558 257.184 52.14C245.005 56.6167 231.246 65.3725 217.421 77.42C192.602 99.0133 167.256 131.14 146.057 167.875L139.211 163.859Z" fill="#00D8FF"/>
<path d="M272.655 362.149C254.748 362.149 232.036 351.352 208.336 330.944C181.871 308.166 154.945 274.262 132.43 235.354C110.31 197.171 94.51 157.473 87.8608 123.437C83.9767 103.556 83.2525 85.32 85.7542 70.6391C88.5192 54.6416 95.0367 43.2525 104.714 37.6566C124.333 26.2675 157.71 37.9858 191.68 68.2033C215.775 89.5991 241.055 122.121 262.846 159.777C286.085 199.936 301.688 237.79 307.876 269.258C311.892 289.667 312.55 308.627 309.719 324.032C306.691 340.424 299.844 352.077 289.969 357.804C285.032 360.701 279.173 362.149 272.655 362.149ZM146.123 227.454C167.453 264.321 193.918 297.698 218.672 318.962C248.363 344.506 271.931 350.036 282.135 344.111C292.734 337.988 300.503 312.906 292.471 272.352C286.546 242.596 271.602 206.387 249.218 167.743C228.217 131.469 204.057 100.33 181.213 80.0533C149.218 51.6133 123.279 45.2275 112.68 51.35C107.282 54.4441 103.266 62.2783 101.357 73.3383C99.1842 86.11 99.8425 102.437 103.398 120.409C109.718 152.733 124.859 190.719 146.123 227.454Z" fill="#00D8FF"/>
</svg>
