<svg width="306" height="306" viewBox="0 0 306 306" fill="none" xmlns="http://www.w3.org/2000/svg">
<path d="M256.855 209.767C225.478 251.565 158.48 237.458 115.513 239.479C115.513 239.479 107.901 239.911 100.25 241.169C100.25 241.169 103.148 239.936 106.846 238.653C137.016 228.219 151.274 226.122 169.613 216.706C204.052 199.066 238.339 160.624 245.316 120.694C232.201 159.099 192.322 192.153 156.015 205.573C131.17 214.749 86.2204 223.67 86.2077 223.67C85.5971 223.357 84.9912 223.035 84.3904 222.704C53.8269 207.835 52.9373 141.625 108.46 120.287C132.809 110.934 156.078 116.068 182.397 109.803C210.457 103.131 242.965 82.099 256.169 54.5981C270.974 98.5435 288.766 167.27 256.855 209.767ZM257.389 41.0002C253.839 49.5116 249.296 57.5737 243.855 65.019C232.025 52.8272 217.868 43.1354 202.222 36.5187C186.577 29.902 169.761 26.495 152.774 26.5C82.5859 26.5 25.5 83.5858 25.5 153.761C25.4918 171.266 29.1062 188.583 36.1158 204.623C43.1254 220.663 53.3785 235.079 66.2302 246.964L69.0261 249.43C66.9882 247.388 65.8444 244.621 65.8462 241.737C65.848 238.853 66.9952 236.087 69.0356 234.048C71.076 232.01 73.8425 230.865 76.7268 230.865C79.6111 230.866 82.3772 232.012 84.4167 234.052C86.4562 236.091 87.6023 238.857 87.6029 241.742C87.6035 244.626 86.4586 247.392 84.4199 249.433C82.3812 251.473 79.6156 252.62 76.7313 252.622C73.847 252.624 71.08 251.48 69.0388 249.442L70.9323 251.12C93.8124 270.464 122.813 281.064 152.774 281.035C219.849 281.035 274.939 228.829 279.654 162.949C283.136 130.683 273.605 89.7113 257.389 41.0002Z" fill="#41873F"/>
</svg>
