<svg width="99" height="98" viewBox="0 0 99 98" fill="none" xmlns="http://www.w3.org/2000/svg">
<g clip-path="url(#clip0_28_2)">
<path d="M55.8249 12.25H45.6166V22.4583H55.8249V12.25Z" fill="#0175BC"/>
<path opacity="0.1" d="M55.8249 21.4375H45.6166V22.4583H55.8249V21.4375Z" fill="#010101"/>
<path opacity="0.2" d="M55.8249 12.25H45.6166V13.2708H55.8249V12.25Z" fill="white"/>
<path d="M55.8249 24.5H45.6166V34.7083H55.8249V24.5Z" fill="#0175BC"/>
<path opacity="0.1" d="M55.8249 33.6875H45.6166V34.7083H55.8249V33.6875Z" fill="#010101"/>
<path opacity="0.2" d="M55.8249 24.5H45.6166V25.5208H55.8249V24.5Z" fill="white"/>
<path d="M55.8249 36.75H45.6166V46.9583H55.8249V36.75Z" fill="#0175BC"/>
<path opacity="0.1" d="M55.8249 45.9375H45.6166V46.9583H55.8249V45.9375Z" fill="#010101"/>
<path opacity="0.2" d="M55.8249 36.75H45.6166V37.7708H55.8249V36.75Z" fill="white"/>
<path d="M43.5749 24.5H33.3666V34.7083H43.5749V24.5Z" fill="#0175BC"/>
<path opacity="0.1" d="M43.5749 33.6875H33.3666V34.7083H43.5749V33.6875Z" fill="#010101"/>
<path opacity="0.2" d="M43.5749 24.5H33.3666V25.5208H43.5749V24.5Z" fill="white"/>
<path d="M43.5749 36.75H33.3666V46.9583H43.5749V36.75Z" fill="#0175BC"/>
<path opacity="0.1" d="M43.5749 45.9375H33.3666V46.9583H43.5749V45.9375Z" fill="#010101"/>
<path opacity="0.2" d="M43.5749 36.75H33.3666V37.7708H43.5749V36.75Z" fill="white"/>
<path d="M31.3249 24.5H21.1166V34.7083H31.3249V24.5Z" fill="#0175BC"/>
<path opacity="0.1" d="M31.3249 33.6875H21.1166V34.7083H31.3249V33.6875Z" fill="#010101"/>
<path opacity="0.2" d="M31.3249 24.5H21.1166V25.5208H31.3249V24.5Z" fill="white"/>
<path d="M31.3249 36.75H21.1166V46.9583H31.3249V36.75Z" fill="#0175BC"/>
<path opacity="0.1" d="M31.3249 45.9375H21.1166V46.9583H31.3249V45.9375Z" fill="#010101"/>
<path opacity="0.2" d="M31.3249 36.75H21.1166V37.7708H31.3249V36.75Z" fill="white"/>
<path d="M19.0749 36.75H8.86661V46.9583H19.0749V36.75Z" fill="#0175BC"/>
<path opacity="0.1" d="M19.0749 45.9375H8.86661V46.9583H19.0749V45.9375Z" fill="#010101"/>
<path opacity="0.2" d="M19.0749 36.75H8.86661V37.7708H19.0749V36.75Z" fill="white"/>
<path d="M68.0749 36.75H57.8666V46.9583H68.0749V36.75Z" fill="#0175BC"/>
<path opacity="0.1" d="M68.0749 45.9375H57.8666V46.9583H68.0749V45.9375Z" fill="#010101"/>
<path opacity="0.2" d="M68.0749 36.75H57.8666V37.7708H68.0749V36.75Z" fill="white"/>
<path d="M97.0451 45.8277C96.762 45.6443 90.9281 41.9597 85.4132 42.837C84.0773 37.2463 78.9492 33.7651 78.698 33.5977L77.2784 32.6526C77.2784 32.6526 76.39 33.5736 76.0941 33.8808C75.986 33.993 75.7074 34.3136 75.3753 34.8929C74.4572 36.4946 73.13 40.0739 73.865 46.6951C73.9368 47.3171 73.7494 47.9312 73.3506 48.3739C72.9917 48.7766 72.4932 48.9999 71.9469 48.9999H0.699951V51.0416C0.699951 82.3684 23.5451 85.7499 33.3666 85.7499C58.6562 85.7499 76.2336 70.3896 83.9058 56.8516C94.0145 55.2406 97.5156 48.8902 97.6991 48.5872L98.7 46.8924L97.0451 45.8277Z" fill="#0175BC"/>
<path opacity="0.2" d="M71.9469 49H0.699951V50.0209H71.9469C72.4932 50.0209 72.9917 49.7976 73.3506 49.3948C73.7493 48.9522 73.9368 48.3381 73.865 47.716C73.8416 47.5054 73.8453 47.3372 73.8261 47.1326C73.788 47.5944 73.6531 48.038 73.3506 48.374C72.9917 48.7767 72.4932 49 71.9469 49Z" fill="white"/>
<path opacity="0.2" d="M97.0451 45.828C96.762 45.6445 90.9281 41.96 85.4132 42.8372C84.0773 37.2466 78.9492 33.7654 78.698 33.5979L77.2784 32.6528C77.2784 32.6528 76.39 33.5738 76.0941 33.881C76.013 33.9652 75.8366 34.1679 75.614 34.5099C74.8455 35.6906 73.5266 38.5311 73.6776 43.886C73.7244 37.7508 75.7519 35.2575 76.0941 34.9019L77.2784 33.6737L78.698 34.6187C78.9492 34.7862 84.0773 38.2674 85.4132 43.8581C90.9281 42.9808 98.6999 46.8927 98.6999 46.8927L97.0451 45.828Z" fill="white"/>
<path opacity="0.1" d="M97.6991 47.5664C97.5156 47.8694 94.0145 54.2197 83.9058 55.8307C76.2336 69.3687 58.6562 84.7291 33.3666 84.7291C23.5451 84.7291 0.699951 81.3476 0.699951 50.0208V51.0416C0.699951 82.3684 23.5451 85.7499 33.3666 85.7499C58.6562 85.7499 76.2336 70.3896 83.9058 56.8516C94.0145 55.2406 97.5156 48.8903 97.6991 48.5872L98.7 46.8925L98.2631 46.6113L97.6991 47.5664Z" fill="#010101"/>
<path d="M55.825 24.5H45.6166V34.7083H55.825V24.5ZM55.825 36.75H45.6166V46.9583H55.825V36.75ZM68.075 36.75H57.8666V46.9583H68.075V36.75ZM55.825 12.25H45.6166V22.4583H55.825V12.25ZM43.575 24.5H33.3666V34.7083H43.575V24.5ZM19.075 36.75H8.86662V46.9583H19.075V36.75ZM97.0451 45.8278C96.762 45.6444 90.9281 41.9598 85.4132 42.8371C84.0773 37.2465 78.9492 33.7653 78.698 33.5978L77.2784 32.6527C77.2784 32.6527 76.3899 33.5736 76.0941 33.8809C75.9859 33.9931 75.7075 34.3136 75.3753 34.893C74.4572 36.4945 73.13 40.0739 73.865 46.6952C73.9368 47.3172 73.7494 47.9313 73.3506 48.3739C72.9917 48.7767 72.4932 49 71.9469 49H0.699951V51.0417C0.699951 82.3685 23.5451 85.75 33.3666 85.75C58.6562 85.75 76.2336 70.3897 83.9058 56.8516C94.0145 55.2406 97.5156 48.8903 97.6991 48.5873L98.7 46.8925L97.0451 45.8278ZM43.575 36.75H33.3666V46.9583H43.575V36.75ZM31.325 24.5H21.1166V34.7083H31.325V24.5ZM31.325 36.75H21.1166V46.9583H31.325V36.75Z" fill="url(#paint0_linear_28_2)"/>
</g>
<defs>
<linearGradient id="paint0_linear_28_2" x1="7.746" y1="33.8897" x2="87.4354" y2="71.0495" gradientUnits="userSpaceOnUse">
<stop stop-color="white" stop-opacity="0.2"/>
<stop offset="1" stop-color="white" stop-opacity="0"/>
</linearGradient>
<clipPath id="clip0_28_2">
<rect width="98" height="98" fill="white" transform="translate(0.699951)"/>
</clipPath>
</defs>
</svg>
