<svg width="123" height="112" viewBox="0 0 123 112" fill="none" xmlns="http://www.w3.org/2000/svg">
<g clip-path="url(#clip0_22_98)">
<path d="M120.121 51.0607L120.116 51.0584L66.7461 2.46881C63.8668 -0.157024 58.8282 -0.154766 55.9589 2.46656L2.5789 51.0607C1.14425 52.3736 0.349976 54.1159 0.349976 55.9665C0.349976 57.8195 1.14425 59.5637 2.58386 60.8744L55.9539 109.464C57.3935 110.777 59.3097 111.5 61.35 111.5C63.3903 111.5 65.3064 110.777 66.7411 109.466L120.116 60.8744C121.556 59.5637 122.35 57.8195 122.35 55.9665C122.35 54.1159 121.556 52.3736 120.121 51.0607Z" fill="#EF473B"/>
<path opacity="0.1" d="M120.728 59.1907L66.7972 108.289C65.3477 109.613 63.4114 110.344 61.35 110.344C59.2886 110.344 57.3522 109.613 55.8977 108.286L1.97172 59.1907C1.34157 58.6168 0.860046 57.9494 0.486801 57.2378C0.764175 58.6066 1.47964 59.869 2.58386 60.8742L55.9539 109.464C57.3935 110.777 59.3097 111.5 61.35 111.5C63.3903 111.5 65.3064 110.777 66.7411 109.466L120.116 60.8742C121.22 59.869 121.936 58.6066 122.213 57.2378C121.84 57.9494 121.358 58.6168 120.728 59.1907Z" fill="#010101"/>
<path d="M86.7666 46.7501C84.861 46.7501 83.0966 47.2591 81.5704 48.0927L70.041 37.6029C70.9569 36.2146 71.5166 34.6092 71.5166 32.8751C71.5166 27.7736 66.9545 23.6251 61.35 23.6251C59.4698 23.6251 57.7292 24.1236 56.2167 24.9366L43.7435 13.5867L40.1504 16.8575L52.6232 28.2072C51.7309 29.5825 51.1833 31.1653 51.1833 32.8751C51.1833 37.1732 54.4367 40.7625 58.8083 41.7965V70.2037C54.4367 71.2377 51.1833 74.827 51.1833 79.1251C51.1833 84.2266 55.7454 88.3751 61.35 88.3751C66.9545 88.3751 71.5166 84.2266 71.5166 79.1251C71.5166 74.827 68.2632 71.2377 63.8916 70.2037V41.7965C64.7902 41.584 65.6328 41.2607 66.4175 40.8461L78.0058 51.3895C77.1355 52.7524 76.6 54.3134 76.6 56.0001C76.6 61.1016 81.1621 65.2501 86.7666 65.2501C92.3712 65.2501 96.9333 61.1016 96.9333 56.0001C96.9333 50.8986 92.3712 46.7501 86.7666 46.7501Z" fill="white"/>
<path opacity="0.2" d="M2.5789 52.2169L55.9589 3.62281C58.8282 1.00148 63.8668 0.999226 66.7461 3.62507L120.116 52.2147L120.121 52.2169C121.404 53.3907 122.139 54.9145 122.288 56.545C122.306 56.3513 122.35 56.163 122.35 55.9665C122.35 54.1159 121.556 52.3736 120.121 51.0607L120.116 51.0584L66.7461 2.46881C63.8668 -0.157024 58.8282 -0.154766 55.9589 2.46656L2.5789 51.0607C1.14425 52.3736 0.349976 54.1159 0.349976 55.9665C0.349976 56.1627 0.394343 56.351 0.412028 56.5444C0.561264 54.9139 1.29659 53.3904 2.5789 52.2169Z" fill="white"/>
<path d="M94.6399 50.2206C96.0515 51.809 96.9333 53.8025 96.9333 56.0001C96.9333 61.1016 92.3712 65.2501 86.7666 65.2501C81.1621 65.2501 76.6 61.1016 76.6 56.0001C76.6 54.3135 77.1355 52.7524 78.0058 51.3895L66.4175 40.8461C65.6328 41.2608 64.7902 41.584 63.8916 41.7965V70.2037C68.2632 71.2377 71.5166 74.827 71.5166 79.1251C71.5166 84.2266 66.9545 88.3751 61.35 88.3751C58.75 88.3751 56.3997 87.4563 54.5999 85.9898L73.57 103.249L113.235 67.1389L94.6399 50.2206ZM70.041 37.6029L81.5704 48.0927C83.0966 47.2591 84.861 46.7501 86.7666 46.7501C89.1817 46.7501 91.3734 47.5527 93.1199 48.8376L69.3417 27.2031L69.3293 27.2124C70.6786 28.7822 71.5166 30.732 71.5166 32.8751C71.5166 34.6092 70.9569 36.2146 70.041 37.6029Z" fill="url(#paint0_linear_22_98)"/>
<path d="M120.121 51.0607L120.116 51.0584L66.7461 2.46881C63.8668 -0.157024 58.8282 -0.154766 55.9589 2.46656L2.5789 51.0607C1.14425 52.3736 0.349976 54.1159 0.349976 55.9665C0.349976 57.8195 1.14425 59.5637 2.58386 60.8744L55.9539 109.464C57.3935 110.777 59.3097 111.5 61.35 111.5C63.3903 111.5 65.3064 110.777 66.7411 109.466L120.116 60.8744C121.556 59.5637 122.35 57.8195 122.35 55.9665C122.35 54.1159 121.556 52.3736 120.121 51.0607Z" fill="url(#paint1_linear_22_98)"/>
</g>
<defs>
<linearGradient id="paint0_linear_22_98" x1="49.5021" y1="45.252" x2="89.272" y2="88.9631" gradientUnits="userSpaceOnUse">
<stop stop-color="#010101" stop-opacity="0.1"/>
<stop offset="1" stop-color="#010101" stop-opacity="0"/>
</linearGradient>
<linearGradient id="paint1_linear_22_98" x1="10.5869" y1="34.4472" x2="108.462" y2="84.6102" gradientUnits="userSpaceOnUse">
<stop stop-color="white" stop-opacity="0.2"/>
<stop offset="1" stop-color="white" stop-opacity="0"/>
</linearGradient>
<clipPath id="clip0_22_98">
<rect width="122" height="111" fill="white" transform="translate(0.349976 0.5)"/>
</clipPath>
</defs>
</svg>
