<svg width="28" height="33" viewBox="0 0 28 33" fill="none" xmlns="http://www.w3.org/2000/svg">
<path d="M20.3813 20.2533C21.1085 19.8345 22.1172 19.472 22.1172 19.472C22.1172 19.472 19.2464 19.9096 16.3903 20.1096C12.8964 20.3533 9.14273 20.4032 7.25847 20.1908C2.8 19.6908 9.70644 18.3095 9.70644 18.3095C9.70644 18.3095 7.02843 18.1596 3.72726 19.4969C-0.167251 21.0845 13.3711 21.8094 20.3813 20.2533Z" fill="#5382A1"/>
<path d="M14.0462 18.247C12.6368 15.5783 7.88163 13.2345 14.0462 9.13462C21.7391 4.02227 17.7925 0.697266 17.7925 0.697266C19.3874 5.97845 12.1843 7.57845 9.58035 10.8596C7.80731 13.1033 10.4483 15.5096 14.0462 18.247Z" fill="#F8981D"/>
<path d="M22.5476 7.23462C22.555 7.23462 9.55073 9.97208 15.7599 15.9969C17.5922 17.7719 15.2776 19.3719 15.2776 19.3719C15.2776 19.3719 19.929 17.347 17.7925 14.8158C15.7969 12.4533 14.2687 11.2783 22.5476 7.23462Z" fill="#F8981D"/>
<path d="M22.0951 24.1406C22.0581 24.2156 21.9468 24.2969 21.9468 24.3031C31.4643 22.1969 27.9629 16.8719 23.4154 18.222C23.0148 18.3408 22.8073 18.6158 22.8073 18.6158C22.8073 18.6158 23.0594 18.5282 23.6234 18.4282C25.9229 18.022 29.2241 21.0219 22.0951 24.1406Z" fill="#5382A1"/>
<path d="M25.5965 28.0344C25.5965 28.0344 26.6721 28.7782 24.4169 29.3594C20.1218 30.4531 6.55374 30.7843 2.78523 29.4032C1.42769 28.9094 3.97209 28.2156 4.77336 28.072C5.6041 27.9219 6.08631 27.9468 6.08631 27.9468C4.58039 27.0531 -3.65394 29.7031 1.90238 30.4594C17.0506 32.5343 29.5283 29.5281 25.5965 28.0344Z" fill="#5382A1"/>
<path d="M9.00923 25.4469C3.17101 26.8219 12.5626 29.6594 19.9956 26.9781C18.7792 26.5782 17.9038 26.1157 17.9038 26.1157C14.5878 26.647 13.0523 26.6844 10.0404 26.397C7.55525 26.1595 9.00923 25.4469 9.00923 25.4469Z" fill="#5382A1"/>
<path d="M22.3472 31.5219C16.5091 32.4468 9.30598 32.3407 5.04031 31.7468C5.04031 31.7406 5.91572 32.3531 10.4112 32.5968C17.2508 32.9657 27.7552 32.3905 28 29.6656C28 29.6656 27.5253 30.697 22.3472 31.5219Z" fill="#5382A1"/>
<path d="M19.1129 22.7594C14.7212 23.472 12.1768 23.4532 8.96471 23.172C6.4795 22.9532 8.10416 21.9408 8.10416 21.9408C1.66515 23.7407 11.6798 25.7783 20.6781 23.5595C19.7212 23.2782 19.1129 22.7594 19.1129 22.7594Z" fill="#5382A1"/>
</svg>
