<svg width="28" height="32" viewBox="0 0 28 32" fill="none" xmlns="http://www.w3.org/2000/svg">
<path d="M14 32C21.732 32 28 24.8366 28 16C28 7.16344 21.732 0 14 0C6.26801 0 0 7.16344 0 16C0 24.8366 6.26801 32 14 32Z" fill="#F0DB4F"/>
<path d="M9.632 9.79199H12.068V17.632C12.068 21.152 10.584 22.4 8.232 22.4C7.644 22.4 6.916 22.304 6.44 22.112L6.72 19.84C7.056 19.968 7.504 20.064 7.98 20.064C9.016 20.064 9.66 19.52 9.66 17.632L9.632 9.79199Z" fill="#323330"/>
<path d="M14.224 19.328C14.868 19.712 15.904 20.096 16.94 20.096C18.06 20.096 18.648 19.552 18.648 18.72C18.648 17.952 18.144 17.504 16.828 16.992C15.036 16.256 13.832 15.104 13.832 13.28C13.832 11.2 15.4 9.59998 17.948 9.59998C19.18 9.59998 20.076 9.88798 20.72 10.24L20.16 12.48C19.74 12.256 18.956 11.904 17.92 11.904C16.856 11.904 16.352 12.48 16.352 13.088C16.352 13.888 16.94 14.24 18.368 14.848C20.272 15.648 21.168 16.8 21.168 18.56C21.168 20.64 19.796 22.4 16.8 22.4C15.568 22.4 14.336 22.016 13.72 21.632L14.224 19.328Z" fill="#323330"/>
</svg>
