<svg width="324" height="122" viewBox="0 0 324 122" fill="none" xmlns="http://www.w3.org/2000/svg">
<g clip-path="url(#clip0_22_139)">
<path d="M305.785 49.3568C305.522 49.4428 305.194 50.2169 305.194 50.733C305.128 53.7436 305.062 61.657 305.062 67.076C305.062 67.248 305.259 67.506 305.391 67.506C306.245 67.5921 308.281 67.6781 310.054 67.6781C312.484 67.6781 313.929 67.248 314.717 66.8179C316.753 65.4417 317.738 62.5171 317.738 59.3346C317.738 52.1093 313.863 49.2708 308.083 49.2708C307.755 49.0987 306.639 49.0987 305.785 49.3568ZM320.497 82.8168C320.497 75.4195 316.359 71.2907 308.806 71.2907C308.478 71.2907 306.047 71.2047 305.522 71.3767C305.325 71.4628 305.128 71.6348 305.128 71.8068C305.128 77.1398 305.062 85.5693 305.259 88.8379C305.391 90.3002 306.179 92.2785 307.164 92.8806C308.215 93.6548 310.514 93.7408 312.156 93.7408C316.556 93.7408 320.497 90.4722 320.497 82.8168ZM294.094 45.228C294.685 45.228 296.393 45.4861 300.793 45.4861C304.931 45.4861 308.281 45.314 312.353 45.314C317.344 45.314 324.175 47.6365 324.175 57.3562C324.175 62.1731 321.613 65.9578 318.264 67.8501C318.067 67.9361 318.067 68.1082 318.264 68.1082C323.058 69.6564 327.261 73.5271 327.261 80.9245C327.261 88.0638 323.846 92.7086 318.855 95.5471C315.833 97.2674 312.09 97.8695 308.215 97.8695C305.325 97.8695 297.509 97.4395 293.109 97.6115C292.649 97.3534 293.503 94.687 293.897 94.2569C294.948 94.1709 295.736 94.0849 296.787 93.6548C298.297 93.1387 298.495 92.5366 298.757 89.44C298.889 86.8595 298.889 77.5699 298.889 70.9467C298.889 61.915 298.954 55.7219 298.889 52.7974C298.823 50.475 298.232 49.7008 296.918 49.2708C295.933 49.0127 294.357 48.7547 293.043 48.4966C292.781 48.0665 293.766 45.4861 294.094 45.228ZM261.189 91.7624C262.569 93.2247 265.261 93.7408 267.626 93.7408C270.713 93.7408 273.8 92.9666 276.755 89.44C279.776 85.8274 281.878 80.3224 281.878 71.4628C281.878 63.0332 279.448 56.152 274.391 52.1093C271.567 49.7868 267.889 48.8407 263.685 48.8407C262.437 48.8407 261.255 48.9267 260.467 49.3568C260.27 49.5288 259.876 50.2169 259.876 50.561C259.745 52.0233 259.745 63.5493 259.745 70.3446C259.745 77.3118 259.745 87.0316 259.876 88.1498C259.942 89.268 260.336 90.9883 261.189 91.7624ZM248.185 45.228C249.302 45.228 253.439 45.4861 255.41 45.4861C259.022 45.4861 261.584 45.228 268.348 45.228C274.062 45.228 278.857 47.2064 282.272 51.0771C286.41 55.8079 288.643 62.2591 288.643 70.2586C288.643 81.5266 284.702 88.0638 280.761 91.7624C276.821 95.5471 271.698 97.7835 264.342 97.7835C260.467 97.7835 253.768 97.6115 248.251 97.5255H248.185C247.923 96.8373 248.645 94.2569 249.105 94.1709C250.615 93.9128 251.009 93.9128 251.732 93.4827C252.914 92.8806 253.177 92.0205 253.308 89.268C253.505 84.107 253.439 77.9139 253.439 70.8607C253.439 65.8718 253.505 56.066 253.374 52.8834C253.177 50.3029 252.323 49.6148 250.615 49.1847C249.761 48.9267 248.645 48.6686 247.003 48.4106C246.872 47.9805 247.923 45.6581 248.185 45.228Z" fill="#8E714E"/>
<path d="M179.092 94.6871C177.647 94.4291 176.662 94.171 175.348 93.3969C175.151 93.2249 174.889 92.5368 174.889 92.1927C174.757 89.6122 174.757 82.1289 174.757 77.054C174.757 73.0112 174.232 69.4846 172.918 66.9901C171.408 64.1516 169.175 62.5173 166.285 62.5173C163.789 62.5173 160.374 64.7537 157.615 67.9363C157.55 68.0223 157.09 68.5384 157.156 67.6783C157.156 66.8181 157.287 65.1838 157.353 64.0656C157.418 63.0334 156.959 62.5173 156.959 62.5173C155.12 63.7216 149.997 65.2698 148.092 65.5279C146.713 65.8719 146.384 67.5922 147.829 68.1944H147.895C149.406 68.7965 150.456 69.4846 151.245 70.1727C151.836 70.7748 151.77 71.635 151.77 72.2371C151.836 77.8281 151.836 86.4296 151.639 91.1605C151.573 93.0528 151.179 93.741 150.128 93.999L150.259 93.913C149.471 94.1711 148.815 94.3431 147.829 94.5151C147.501 94.9452 147.501 97.3536 147.829 97.8697C148.486 97.8697 151.77 97.6117 154.529 97.6117C158.272 97.6117 160.243 97.8697 161.228 97.8697C161.622 97.2676 161.753 95.0312 161.49 94.5151C160.374 94.4291 159.586 94.2571 158.863 93.999C157.812 93.741 157.55 93.0528 157.484 91.4186C157.353 87.4618 157.353 79.1183 157.353 73.3553C157.353 71.807 157.681 71.0329 158.009 70.6028C159.323 69.1405 161.425 68.0223 163.329 68.0223C165.168 68.0223 166.351 68.7965 167.27 69.7426C168.518 71.1189 168.912 73.0112 169.109 74.4735C169.372 77.6561 169.306 84.0212 169.306 89.6122C169.306 92.6228 169.109 93.3109 168.255 93.741C167.861 93.999 166.81 94.2571 165.628 94.4291C165.234 94.9452 165.365 97.2676 165.628 97.7837C167.27 97.7837 169.24 97.5257 172.065 97.5257C175.611 97.5257 177.91 97.7837 178.829 97.7837C179.223 97.4396 179.355 95.2892 179.092 94.6871ZM194.92 66.13C191.899 66.13 189.995 69.2265 189.995 73.9574C189.995 78.8603 191.637 84.4513 196.365 84.4513C197.154 84.4513 198.664 84.0212 199.321 82.989C200.437 81.6128 201.16 78.9463 201.16 76.1078C201.16 69.8287 198.795 66.13 194.92 66.13ZM194.526 99.16C193.41 99.16 192.556 99.59 192.096 100.02C189.666 101.998 188.615 103.977 188.615 106.299C188.615 108.45 189.272 110.17 190.586 111.718C192.228 113.611 194.526 114.471 197.416 114.471C203.262 114.471 205.823 110.342 205.823 106.299C205.823 103.461 204.706 101.568 202.539 100.536C200.897 99.59 198.007 99.16 194.526 99.16ZM194.92 118.599C191.44 118.599 188.944 117.653 186.776 115.417C184.675 113.353 183.755 110.17 183.755 108.02C183.755 107.417 183.887 105.783 184.872 104.321C185.529 103.461 186.842 101.74 190.126 98.8159C190.257 98.7299 190.323 98.6439 190.323 98.5578C190.323 98.3858 190.192 98.2998 190.126 98.2138C187.433 96.8375 186.645 94.6871 186.382 93.4829V93.2249C186.317 92.7948 186.185 92.3647 186.711 91.8486C187.105 91.5046 187.696 90.9885 188.287 90.4724C189.272 89.6982 190.257 88.9241 190.914 88.236C191.045 88.0639 191.045 87.9779 191.045 87.8059C191.045 87.6339 190.914 87.5479 190.848 87.4618C186.842 85.7415 184.872 81.8708 184.872 76.0218C184.872 72.2371 186.185 68.7965 188.55 66.5601C190.126 64.9258 194.132 62.8614 196.759 62.8614H196.956C199.649 62.9474 201.094 63.7216 203.262 64.6677C204.378 65.1838 205.495 65.4419 207.005 65.4419C209.238 65.4419 210.223 64.5817 211.012 63.4635C211.077 63.6355 211.209 63.9796 211.209 64.9258C211.274 65.8719 211.012 67.3342 210.486 68.3664C210.026 69.2265 208.976 69.8287 207.99 69.8287H207.728C206.677 69.6566 206.217 69.5706 206.217 69.5706L206.02 69.7426C205.954 69.9147 206.02 70.0007 206.086 70.2587L206.151 70.4308C206.283 71.1189 206.48 73.0972 206.48 73.6133C206.48 79.7204 204.575 82.4729 202.605 84.4513C200.634 86.3436 198.467 87.5478 195.906 87.8059C195.84 87.8059 195.643 87.8059 195.117 87.8919C194.855 87.8919 194.461 87.9779 194.395 87.9779H194.329C193.87 88.15 192.753 88.8381 192.753 90.1283C192.753 91.2465 193.279 92.6228 195.709 92.7948C196.234 92.8808 196.759 92.8808 197.285 92.9668C200.569 93.2249 204.575 93.655 206.48 94.4291C209.107 95.7193 210.749 98.7299 210.749 102.429C210.749 107.934 207.728 113.094 202.67 116.363C200.043 117.825 197.613 118.599 194.92 118.599ZM227.497 66.474C226.314 66.474 225.198 66.8181 224.41 67.5922C222.177 69.3986 221.06 73.0112 221.06 78.1722C221.06 87.9779 224.804 94.8592 230.189 94.8592C231.766 94.8592 233.014 94.2571 234.13 93.0528C235.772 91.2465 236.626 87.6339 236.626 82.645C236.626 73.0112 232.882 66.474 227.497 66.474ZM228.482 98.4718C218.762 98.4718 215.281 89.0961 215.281 80.4086C215.281 74.3015 217.185 69.5706 220.929 66.216C223.622 64.0656 226.84 62.8614 229.664 62.8614C237.086 62.8614 242.274 69.8287 242.274 79.8065C242.274 86.6017 240.238 92.0207 236.298 95.2892C234.459 96.9235 231.175 98.4718 228.482 98.4718ZM126.747 66.474C125.565 66.474 124.448 66.8181 123.66 67.5922C121.427 69.3986 120.31 73.0112 120.31 78.1722C120.31 87.9779 124.054 94.8592 129.44 94.8592C131.016 94.8592 132.264 94.2571 133.38 93.0528C135.022 91.2465 135.876 87.6339 135.876 82.645C135.876 73.0112 132.198 66.474 126.747 66.474ZM127.798 98.4718C118.077 98.4718 114.596 89.0961 114.596 80.4086C114.596 74.3015 116.501 69.5706 120.245 66.216C122.937 64.0656 126.156 62.8614 128.98 62.8614C136.401 62.8614 141.59 69.8287 141.59 79.8065C141.59 86.6017 139.554 92.0207 135.613 95.2892C133.774 96.9235 130.49 98.4718 127.798 98.4718ZM62.5138 97.6977C62.3824 97.4396 62.3167 96.8375 62.3167 95.9774C62.3167 95.3753 62.4481 95.0312 62.5138 94.8592C63.696 94.6011 64.3527 94.4291 65.0095 94.171C66.126 93.827 66.5858 92.9668 66.6515 91.0745C66.8485 86.6017 66.8485 78.0861 66.7828 72.1511V71.979C66.7828 71.2909 66.7828 70.5168 66.126 69.9147C65.2065 69.1405 64.1557 68.4524 62.7108 67.9363C62.1854 67.6783 61.857 67.3342 61.9226 66.9041C61.9226 66.474 62.251 65.958 63.0392 65.7859C64.9438 65.5279 69.804 63.9796 71.7743 62.8614C71.9057 63.0334 72.0371 63.4635 72.0371 64.0656L71.9714 64.9258C71.9057 65.7859 71.84 66.7321 71.84 67.6783C71.84 67.9363 72.037 68.1944 72.2998 68.1944C72.4311 68.1944 72.4968 68.1083 72.6281 68.0223C76.3061 64.3237 79.59 62.9474 81.2976 62.9474C84.1218 62.9474 86.2892 64.6677 87.9311 68.2804C88.0625 68.5384 88.1281 68.5384 88.3252 68.5384C88.4565 68.5384 88.5879 68.4524 88.6536 68.2804C92.0031 64.9258 95.4184 62.8614 97.6514 62.8614C102.971 62.8614 106.124 68.0223 106.124 76.7959C106.124 79.2904 106.124 82.4729 106.058 85.3975C106.058 87.9779 105.993 90.3864 105.993 92.1067C105.993 92.4507 106.387 93.655 107.043 93.913C107.832 94.4291 108.948 94.6871 110.327 94.9452H110.393C110.524 95.4613 110.262 97.4396 110.065 97.7837C109.736 97.7837 109.211 97.7837 108.62 97.6977C107.503 97.6117 105.993 97.5257 104.285 97.5257C100.738 97.5257 98.8993 97.6117 97.126 97.7837C96.9947 97.1816 96.929 95.3753 97.126 94.9452C98.1769 94.6871 98.6366 94.5151 99.2934 94.2571C100.41 93.827 100.738 93.1389 100.804 91.1605C100.804 89.6982 101.001 77.6561 100.673 74.7315C100.344 71.721 98.6366 68.1944 94.8273 68.1944C93.3824 68.1944 91.1493 68.9685 88.982 71.1189C88.8506 71.2909 88.7849 71.635 88.7849 71.893V71.979C88.982 73.5273 88.982 75.3336 88.982 78.0861V82.989C88.982 86.3436 88.9163 89.5262 88.982 91.8486C88.982 93.4829 89.7044 93.827 90.3612 94.171C90.6896 94.2571 90.9523 94.3431 91.215 94.4291C91.7404 94.6011 92.2659 94.6871 93.054 94.9452C93.1853 95.2032 93.1853 96.2354 92.9883 97.0096C92.9226 97.4396 92.7913 97.6977 92.7913 97.7837C90.8209 97.6977 88.8506 97.6117 85.9608 97.6117C85.107 97.6117 83.5964 97.6977 82.3485 97.6977C81.2976 97.6977 80.3781 97.7837 79.787 97.7837C79.7214 97.6117 79.59 97.0956 79.59 96.3214C79.59 95.6333 79.7214 95.1172 79.787 94.9452C80.0498 94.8592 80.3125 94.7732 80.5752 94.7732C81.232 94.6011 81.8231 94.5151 82.4142 94.3431C83.3993 93.999 83.7277 93.3109 83.7934 91.6766C83.9904 87.9779 84.1218 77.226 83.7277 74.5595C83.0709 70.2587 81.1663 68.0223 78.1451 68.0223C76.3718 68.0223 74.1387 69.1405 72.2998 70.9469C72.037 71.2049 71.7743 71.979 71.7743 72.6672V77.054C71.7743 82.4729 71.7743 89.1821 71.84 92.1067C71.9057 92.9668 72.1027 94.085 73.4163 94.4291C73.679 94.5151 74.1387 94.6871 74.7298 94.6871L75.7807 94.9452C75.912 95.3753 75.8464 97.1816 75.5837 97.7837C74.9926 97.7837 74.3358 97.6977 73.5476 97.6977C72.3654 97.6117 70.7892 97.5257 69.0815 97.5257C67.1112 97.5257 65.6663 97.6117 64.4841 97.6977C63.8273 97.6977 63.1705 97.6977 62.5138 97.6977Z" fill="#442D22"/>
<path d="M32.4332 115.675L30.0688 114.643C30.0688 114.643 30.3315 98.9878 26.0624 97.8696C23.2383 93.5688 26.5222 -86.1177 36.7679 97.2674C36.7679 97.2674 33.2213 99.5899 32.6302 103.547C31.9735 107.417 32.4332 115.675 32.4332 115.675Z" fill="white"/>
<path d="M32.4332 115.675L30.0688 114.643C30.0688 114.643 30.3315 98.9878 26.0624 97.8696C23.2383 93.5688 26.5222 -86.1177 36.7679 97.2674C36.7679 97.2674 33.2213 99.5899 32.6302 103.547C31.9735 107.417 32.4332 115.675 32.4332 115.675Z" fill="#A6A385"/>
<path d="M33.6811 100.536C33.6811 100.536 54.1726 82.9029 49.3781 46.1743C44.7807 19.5094 33.8124 10.7359 32.6302 7.38125C31.3167 4.97282 30.0688 0.758057 30.0688 0.758057L30.9226 74.9895C30.9883 75.1615 29.215 97.7836 33.6811 100.536Z" fill="white"/>
<path d="M33.6811 100.536C33.6811 100.536 54.1726 82.9029 49.3781 46.1743C44.7807 19.5094 33.8124 10.7359 32.6302 7.38125C31.3167 4.97282 30.0688 0.758057 30.0688 0.758057L30.9226 74.9895C30.9883 75.1615 29.215 97.7836 33.6811 100.536Z" fill="#499D4A"/>
<path d="M28.8866 101.568C28.8866 101.568 9.64299 84.3651 10.7595 54.0877C11.876 23.8102 25.4057 8.92952 28.0328 6.17703C29.8061 3.76859 29.8718 2.90843 30.0031 0.5C31.1853 3.85461 30.9883 50.8191 31.1197 56.4101C31.6451 77.6559 30.2002 97.5255 28.8866 101.568Z" fill="white"/>
<path d="M28.8866 101.568C28.8866 101.568 9.64299 84.3651 10.7595 54.0877C11.876 23.8102 25.4057 8.92952 28.0328 6.17703C29.8061 3.76859 29.8718 2.90843 30.0031 0.5C31.1853 3.85461 30.9883 50.8191 31.1197 56.4101C31.6451 77.6559 30.2002 97.5255 28.8866 101.568Z" fill="#58AA50"/>
</g>
<defs>
<clipPath id="clip0_22_139">
<rect width="324" height="121" fill="white" transform="translate(0 0.5)"/>
</clipPath>
</defs>
</svg>
