<svg width="181" height="96" viewBox="0 0 181 96" fill="none" xmlns="http://www.w3.org/2000/svg">
<path d="M1.74994 85.6502H7.54994V62.6502L16.6499 82.6502C17.6499 85.0502 19.1499 85.9502 22.0499 85.9502C24.9499 85.9502 26.2499 85.0502 27.3499 82.6502L36.3499 62.6502V85.6502H42.1499V62.6502C42.1499 60.4502 41.2499 59.3502 39.3499 58.7502C34.9499 57.4502 31.9499 58.5502 30.6499 61.5502L21.8499 81.3502L13.2499 61.5502C11.9499 58.5502 8.94994 57.4502 4.54994 58.7502C2.64994 59.3502 1.74994 60.3502 1.74994 62.6502V85.6502Z" fill="#00678F"/>
<path d="M46.95 66.9501H52.75V79.5501C52.75 80.2501 52.9499 81.8501 56.1499 81.9501C57.8499 81.9501 68.75 81.9501 68.85 81.9501V66.8501H74.6499C74.6499 66.8501 74.6499 87.4501 74.6499 87.5501C74.6499 92.6501 68.35 93.7501 65.45 93.7501H47.1499V89.8501H65.5499C69.25 89.4501 68.85 87.5501 68.85 86.9501V85.4501H56.45C50.65 85.4501 46.95 82.8501 46.95 79.9501C46.95 79.6501 47.15 67.0501 46.95 66.9501Z" fill="#00678F"/>
<path d="M172.35 52.2502C168.75 52.1502 166.05 52.5502 163.65 53.4502C162.95 53.7502 161.95 53.7502 161.85 54.5502C162.25 54.9502 162.25 55.4502 162.55 55.9502C163.05 56.8502 164.05 58.0502 164.85 58.6502C165.75 59.3502 166.75 60.0502 167.75 60.7502C169.45 61.8502 171.45 62.4502 173.15 63.5502C174.15 64.1502 175.15 64.9502 176.05 65.6502C176.55 66.0502 176.85 66.5502 177.45 66.8502V66.7502C177.15 66.3502 177.05 65.7502 176.75 65.3502C176.35 64.9502 175.85 64.5502 175.45 64.0502C174.15 62.3502 172.55 60.7502 170.85 59.5502C169.45 58.5502 166.25 57.2502 165.75 55.5502C165.75 55.5502 165.75 55.5502 165.65 55.4502C166.65 55.3502 167.75 55.0502 168.75 54.7502C170.25 54.3502 171.65 54.4502 173.25 54.0502C173.95 53.8502 174.65 53.6502 175.35 53.4502C175.35 53.3502 175.35 53.1502 175.35 53.0502C174.55 52.2502 173.95 51.1502 173.15 50.4502C170.85 48.4502 168.35 46.5502 165.75 44.9502C164.35 44.0502 162.55 43.4502 161.15 42.7502C160.65 42.4502 159.75 42.3502 159.45 41.9502C158.65 40.9502 158.15 39.6502 157.65 38.5502C156.35 36.0502 155.15 33.3502 153.95 30.7502C153.15 29.0502 152.65 27.2502 151.65 25.6502C147.05 18.0502 142.05 13.4502 134.35 8.95018C132.65 8.05018 130.75 7.65018 128.65 7.15018C127.55 7.15018 126.45 7.05018 125.35 6.95018C124.65 6.65018 123.95 5.75018 123.25 5.35018C120.75 3.75018 114.15 0.250175 112.25 4.85018C111.05 7.75018 114.05 10.6502 115.05 12.0502C115.85 13.0502 116.75 14.2502 117.35 15.3502C117.65 16.1502 117.75 16.9502 118.05 17.7502C118.75 19.7502 119.45 21.8502 120.35 23.7502C120.85 24.6502 121.35 25.6502 122.05 26.5502C122.45 27.0502 123.05 27.2502 123.15 28.0502C122.55 28.9502 122.45 30.2502 122.15 31.3502C120.55 36.3502 121.15 42.6502 123.45 46.3502C124.15 47.4502 125.85 49.9502 128.15 48.9502C130.15 48.1502 129.75 45.6502 130.25 43.3502C130.35 42.8502 130.25 42.4502 130.55 42.1502V42.2502C131.15 43.4502 131.75 44.7502 132.35 45.9502C133.75 48.1502 136.15 50.4502 138.15 51.9502C139.25 52.7502 140.05 54.1502 141.45 54.6502V54.5502C141.45 54.5502 141.45 54.5502 141.35 54.5502C141.05 54.1502 140.65 53.9502 140.35 53.6502C139.55 52.8502 138.65 51.8502 138.05 50.9502C136.15 48.4502 134.55 45.6502 133.05 42.8502C132.35 41.4502 131.75 39.9502 131.15 38.5502C130.85 38.0502 130.85 37.2502 130.45 36.9502C129.75 37.9502 128.75 38.7502 128.35 39.9502C127.55 41.8502 127.45 44.2502 127.15 46.6502C126.95 46.6502 127.05 46.6502 126.95 46.7502C125.55 46.3502 125.05 44.9502 124.45 43.6502C123.15 40.4502 122.85 35.3502 124.05 31.7502C124.35 30.8502 125.75 27.8502 125.15 26.9502C124.85 26.1502 123.95 25.6502 123.45 24.9502C122.85 24.1502 122.25 23.0502 121.85 22.0502C120.75 19.5502 120.25 16.7502 119.05 14.2502C118.55 13.0502 117.55 11.8502 116.85 10.8502C116.05 9.65018 115.05 8.75018 114.35 7.35018C114.15 6.85018 113.85 6.05017 114.15 5.55017C114.25 5.15017 114.45 5.05017 114.75 4.95018C115.35 4.45018 116.95 5.05018 117.55 5.35018C119.25 6.05018 120.55 6.65018 121.95 7.55018C122.55 7.95018 123.25 8.85018 124.05 9.05018C124.35 9.05018 124.65 9.05018 124.95 9.05018C126.35 9.35018 127.95 9.15018 129.35 9.55018C131.75 10.3502 133.85 11.4502 135.75 12.6502C141.55 16.3502 146.45 21.6502 149.65 27.9502C150.15 28.9502 150.45 29.9502 150.85 30.9502C151.75 33.1502 152.95 35.3502 153.85 37.5502C154.75 39.6502 155.65 41.7502 157.05 43.5502C157.75 44.4502 160.35 44.9502 161.65 45.4502C162.55 45.8502 163.95 46.2502 164.75 46.6502C166.25 47.5502 167.75 48.6502 169.25 49.6502C169.95 50.2502 172.25 51.3502 172.35 52.2502Z" fill="#00678F"/>
<path d="M126.85 13.55C126.05 13.55 125.55 13.65 125.05 13.75C125.05 13.75 125.05 13.75 125.05 13.85C125.05 13.85 125.05 13.85 125.15 13.85C125.55 14.55 126.15 15.05 126.55 15.65C126.95 16.35 127.25 17.05 127.55 17.75L127.65 17.65C128.25 17.25 128.55 16.45 128.55 15.45C128.25 15.15 128.25 14.85 128.05 14.55C127.75 14.05 127.15 13.85 126.85 13.55Z" fill="#00678F"/>
<path d="M79.1499 85.6501H95.9499C97.9499 85.6501 99.7499 85.2501 101.35 84.5501C103.85 83.3501 105.05 81.8501 105.05 79.7501V75.4501C105.05 73.7501 103.65 72.2501 100.95 71.1501C99.5499 70.6501 97.7499 70.3501 95.9499 70.3501H88.9499C86.5499 70.3501 85.4499 69.6501 85.1499 68.0501C85.1499 67.8501 85.1499 67.6501 85.1499 67.5501V64.9501C85.1499 64.8501 85.1499 64.6501 85.1499 64.4501C85.4499 63.2501 86.0499 62.9501 88.1499 62.7501C88.3499 62.7501 88.5499 62.7501 88.6499 62.7501H105.25V58.8501H88.9499C86.5499 58.8501 85.3499 58.9501 84.2499 59.3501C80.8499 60.4501 79.2499 62.1501 79.2499 65.1501V68.3501C79.2499 70.9501 82.1499 73.2501 87.1499 73.7501C87.6499 73.7501 88.2499 73.7501 88.8499 73.7501H94.8499C95.0499 73.7501 95.2499 73.7501 95.4499 73.7501C97.2499 73.9501 98.0499 74.2501 98.6499 74.9501C99.0499 75.3501 99.0499 75.6501 99.0499 76.0501V79.4501C99.0499 79.8501 98.7499 80.3501 98.2499 80.8501C97.7499 81.3501 96.8499 81.6501 95.7499 81.6501C95.5499 81.6501 95.3499 81.6501 95.1499 81.6501H79.1499V85.6501Z" fill="#E38D1A"/>
<path d="M141.35 78.85C141.35 82.85 144.35 85.05 150.35 85.45C150.95 85.45 151.45 85.55 152.05 85.55H167.25V81.65H151.95C148.55 81.65 147.25 80.85 147.25 78.75V58.75H141.45L141.35 78.85Z" fill="#E38D1A"/>
<path d="M108.75 79.0501V65.2501C108.75 61.7501 111.25 59.5501 116.15 58.9501C116.65 58.9501 117.25 58.8501 117.75 58.8501H128.85C129.45 58.8501 129.95 58.8501 130.55 58.9501C135.45 59.6501 137.85 61.7501 137.85 65.2501V79.0501C137.85 81.9501 136.85 83.4501 134.45 84.4501L140.15 89.6501H133.45L128.85 85.4501L124.15 85.7501H117.95C116.95 85.7501 115.75 85.6501 114.55 85.3501C110.55 84.2501 108.75 82.2501 108.75 79.0501ZM115.05 78.7501C115.05 78.9501 115.15 79.1501 115.15 79.3501C115.45 80.9501 116.95 81.8501 119.25 81.8501H124.55L119.75 77.4501H126.45L130.65 81.2501C131.45 80.8501 131.95 80.1501 132.15 79.3501C132.15 79.1501 132.15 78.9501 132.15 78.7501V65.5501C132.15 65.3501 132.15 65.1501 132.15 65.0501C131.85 63.5501 130.35 62.6501 128.05 62.6501H119.25C116.65 62.6501 114.95 63.7501 114.95 65.5501L115.05 78.7501Z" fill="#E38D1A"/>
<path d="M169.85 85.6501H170.65V82.3501H171.75V81.6501H168.65V82.3501H169.85V85.6501ZM176.35 85.6501H177.15V81.7501H175.95L174.95 84.4501L173.85 81.7501H172.65V85.6501H173.45V82.6501L174.55 85.6501H175.15L176.25 82.6501L176.35 85.6501Z" fill="#E38D1A"/>
</svg>
